HIERARCHY
ROOT joint_0
{
	OFFSET 0.000000 0.000000 0.000000
	CHANNELS 6 Xposition Yposition Zposition Zrotation Yrotation Xrotation 
	JOINT joint_1
	{
		OFFSET 3.886261 -0.864090 119.041016
		CHANNELS 3 Zrotation Yrotation Xrotation
		JOINT joint_2
		{
			OFFSET -8.814819 -1.400200 108.366943
			CHANNELS 3 Zrotation Yrotation Xrotation
			JOINT joint_3
			{
				OFFSET -10.127777 -1.846550 108.123047
				CHANNELS 3 Zrotation Yrotation Xrotation
				JOINT joint_4
				{
					OFFSET -0.104309 -2.852760 150.227051
					CHANNELS 3 Zrotation Yrotation Xrotation
					JOINT joint_5
					{
						OFFSET 20.206146 2.292160 92.163940
						CHANNELS 3 Zrotation Yrotation Xrotation
						End Site
						{
							OFFSET 0.000000 0.000000 0.000000
						}
					}
				}
				JOINT joint_6
				{
					OFFSET 0.345886 -34.260384 83.589966
					CHANNELS 3 Zrotation Yrotation Xrotation
					JOINT joint_7
					{
						OFFSET -3.824402 -146.174217 -19.015991
						CHANNELS 3 Zrotation Yrotation Xrotation
						JOINT joint_8
						{
							OFFSET 134.098145 -24.802032 -261.230957
							CHANNELS 3 Zrotation Yrotation Xrotation
							JOINT joint_9
							{
								OFFSET 123.899048 209.340523 59.187012
								CHANNELS 3 Zrotation Yrotation Xrotation
								End Site
								{
									OFFSET 0.000000 0.000000 0.000000
								}
							}
						}
					}
				}
				JOINT joint_10
				{
					OFFSET -0.423798 31.098438 84.831055
					CHANNELS 3 Zrotation Yrotation Xrotation
					JOINT joint_11
					{
						OFFSET 3.093201 146.891491 -12.504028
						CHANNELS 3 Zrotation Yrotation Xrotation
						JOINT joint_12
						{
							OFFSET 195.631927 -20.967743 -219.380981
							CHANNELS 3 Zrotation Yrotation Xrotation
							JOINT joint_13
							{
								OFFSET -8.651001 -247.511261 -36.616089
								CHANNELS 3 Zrotation Yrotation Xrotation
								End Site
								{
									OFFSET 0.000000 0.000000 0.000000
								}
							}
						}
					}
				}
			}
		}
	}
	JOINT joint_14
	{
		OFFSET 6.948090 -87.642914 -106.942017
		CHANNELS 3 Zrotation Yrotation Xrotation
		JOINT joint_15
		{
			OFFSET -34.394226 4.543823 -458.972961
			CHANNELS 3 Zrotation Yrotation Xrotation
			JOINT joint_16
			{
				OFFSET -17.051544 6.964645 -485.636009
				CHANNELS 3 Zrotation Yrotation Xrotation
				JOINT joint_17
				{
					OFFSET 190.520630 40.462875 -83.888000
					CHANNELS 3 Zrotation Yrotation Xrotation
					End Site
					{
						OFFSET 0.000000 0.000000 0.000000
					}
				}
			}
		}
	}
	JOINT joint_18
	{
		OFFSET 3.929901 87.535423 -107.188965
		CHANNELS 3 Zrotation Yrotation Xrotation
		JOINT joint_19
		{
			OFFSET -34.463440 -10.383845 -458.873047
			CHANNELS 3 Zrotation Yrotation Xrotation
			JOINT joint_20
			{
				OFFSET 14.641205 -11.071349 -485.637978
				CHANNELS 3 Zrotation Yrotation Xrotation
				JOINT joint_21
				{
					OFFSET 194.569275 -4.161928 -84.249998
					CHANNELS 3 Zrotation Yrotation Xrotation
					End Site
					{
						OFFSET 0.000000 0.000000 0.000000
					}
				}
			}
		}
	}
}
MOTION
Frames: 18
Frame Time: 0.016667
867.593323 17.947744 1151.426025 0.207165 6.615211 0.000039 0.585225 -9.679876 -0.504264 0.807748 1.048305 0.124033 0.727899 -2.253510 -0.137148 -0.225258 5.706222 0.323551 0.000000 0.000000 0.000000 4.557621 12.035560 5.138579 8.610935 15.427002 -4.757282 -48.225166 11.684733 -88.032037 0.000000 0.000000 0.000000 -4.232316 20.488960 -5.362693 1.933212 19.806529 17.992397 36.769824 -33.865935 51.960550 0.000000 0.000000 0.000000 3.226258 -0.319910 -0.975898 3.138274 -3.303557 -0.190133 3.124134 -1.219889 1.622818 0.000000 0.000000 0.000000 0.208350 -0.847352 1.464276 0.386351 -2.165296 -0.487255 0.422533 -2.896150 0.119396 0.000000 0.000000 0.000000 
867.644897 17.821445 1151.437012 0.155148 6.625928 0.003662 0.597954 -9.669156 -0.521067 0.821648 1.048011 0.127911 0.741127 -2.252228 -0.141103 -0.224450 5.705619 0.320431 0.000000 0.000000 0.000000 4.551303 12.050563 5.145321 8.632316 15.416540 -4.748897 -48.212219 11.688363 -88.035486 0.000000 0.000000 0.000000 -4.273035 20.460096 -5.365740 1.958455 19.789592 17.973575 36.800399 -33.859820 51.933008 0.000000 0.000000 0.000000 3.241720 -0.329933 -0.985965 3.152308 -3.310278 -0.180666 3.138578 -1.211454 1.627306 0.000000 0.000000 0.000000 0.223551 -0.863344 1.461900 0.400479 -2.142556 -0.486347 0.437565 -2.909894 0.125555 0.000000 0.000000 0.000000 
867.666809 17.701927 1151.463989 0.104435 6.634651 0.009563 0.610500 -9.653531 -0.539178 0.835318 1.046790 0.133132 0.753971 -2.250494 -0.145423 -0.223238 5.707290 0.315253 0.000000 0.000000 0.000000 4.541659 12.064976 5.147594 8.649516 15.402928 -4.738397 -48.198053 11.692218 -88.027486 0.000000 0.000000 0.000000 -4.315461 20.430800 -5.364866 1.994437 19.772223 17.950193 36.838050 -33.854219 51.894393 0.000000 0.000000 0.000000 3.255682 -0.352624 -0.998255 3.164967 -3.290874 -0.169454 3.150817 -1.214031 1.633192 0.000000 0.000000 0.000000 0.238779 -0.887186 1.456819 0.413879 -2.104066 -0.485518 0.452348 -2.929467 0.131486 0.000000 0.000000 0.000000 
867.677429 17.578075 1151.491943 0.062827 6.640413 0.016719 0.620968 -9.635642 -0.557370 0.846812 1.045431 0.137526 0.764762 -2.247302 -0.149470 -0.222181 5.712120 0.310338 0.000000 0.000000 0.000000 4.528162 12.078978 5.149799 8.659818 15.388278 -4.727927 -48.185941 11.694905 -88.009653 0.000000 0.000000 0.000000 -4.360482 20.401834 -5.361730 2.031177 19.754773 17.927335 36.876318 -33.847908 51.856913 0.000000 0.000000 0.000000 3.266617 -0.376326 -1.009218 3.174917 -3.262501 -0.159788 3.160008 -1.221720 1.638843 0.000000 0.000000 0.000000 0.251175 -0.910312 1.450730 0.424191 -2.063546 -0.482772 0.464001 -2.948918 0.136077 0.000000 0.000000 0.000000 
867.684631 17.446415 1151.510986 0.034778 6.641253 0.024896 0.627836 -9.613785 -0.575736 0.854691 1.043467 0.142028 0.771965 -2.242275 -0.153473 -0.221424 5.719856 0.306386 0.000000 0.000000 0.000000 4.509711 12.092635 5.152977 8.662924 15.372689 -4.717813 -48.178130 11.694383 -87.983462 0.000000 0.000000 0.000000 -4.408713 20.373227 -5.358487 2.060528 19.737283 17.908655 36.909501 -33.838716 51.830767 0.000000 0.000000 0.000000 3.273881 -0.393397 -1.018278 3.181369 -3.234499 -0.151773 3.165688 -1.231482 1.643403 0.000000 0.000000 0.000000 0.259697 -0.926049 1.443433 0.430570 -2.029708 -0.476147 0.471327 -2.964241 0.138898 0.000000 0.000000 0.000000 
867.680542 17.311413 1151.527954 0.017083 6.637866 0.034632 0.631872 -9.587526 -0.595000 0.859778 1.041558 0.147273 0.776300 -2.236381 -0.157609 -0.220655 5.731328 0.301945 0.000000 0.000000 0.000000 4.487830 12.105609 5.155969 8.657053 15.356135 -4.707445 -48.174418 11.691334 -87.945845 0.000000 0.000000 0.000000 -4.459319 20.344815 -5.354381 2.087649 19.719662 17.891696 36.941597 -33.828121 51.809624 0.000000 0.000000 0.000000 3.278266 -0.408695 -1.026782 3.185097 -3.200188 -0.144791 3.168422 -1.245382 1.647564 0.000000 0.000000 0.000000 0.265116 -0.938304 1.434071 0.433536 -1.996698 -0.466148 0.475054 -2.978157 0.140206 0.000000 0.000000 0.000000 
867.682434 17.158030 1151.536987 0.012874 6.632823 0.044406 0.632744 -9.565726 -0.614851 0.861799 1.040192 0.151144 0.777781 -2.230830 -0.160586 -0.220825 5.748892 0.300711 0.000000 0.000000 0.000000 4.463412 12.119185 5.161456 8.651549 15.341660 -4.698351 -48.169250 11.688771 -87.910239 0.000000 0.000000 0.000000 -4.511200 20.318794 -5.347980 2.112211 19.704217 17.877816 36.970613 -33.815856 51.793888 0.000000 0.000000 0.000000 3.277857 -0.419641 -1.029655 3.184751 -3.167200 -0.142721 3.166976 -1.261280 1.650322 0.000000 0.000000 0.000000 0.266049 -0.947144 1.427877 0.432497 -1.968187 -0.457152 0.474648 -2.991035 0.139760 0.000000 0.000000 0.000000 
867.703247 16.969456 1151.532959 0.026297 6.627297 0.053806 0.630264 -9.554108 -0.638589 0.861107 1.039399 0.155417 0.776439 -2.227799 -0.163547 -0.223154 5.774266 0.307705 0.000000 0.000000 0.000000 4.433436 12.135468 5.172500 8.651704 15.331619 -4.692076 -48.157523 11.689662 -87.883088 0.000000 0.000000 0.000000 -4.566155 20.297351 -5.336916 2.132715 19.692928 17.868375 36.993811 -33.799863 51.785012 0.000000 0.000000 0.000000 3.270837 -0.423119 -1.022675 3.179071 -3.141395 -0.150037 3.160109 -1.278511 1.650990 0.000000 0.000000 0.000000 0.261325 -0.950741 1.428580 0.427006 -1.949166 -0.453080 0.469658 -3.002289 0.137378 0.000000 0.000000 0.000000 
867.736206 16.750101 1151.517944 0.056730 6.620756 0.062883 0.623927 -9.550537 -0.664656 0.856939 1.039598 0.159020 0.771638 -2.226686 -0.166285 -0.227042 5.808487 0.320222 0.000000 0.000000 0.000000 4.398806 12.153670 5.188254 8.654618 15.324742 -4.687723 -48.141736 11.692439 -87.860657 0.000000 0.000000 0.000000 -4.624469 20.280330 -5.320943 2.149454 19.685410 17.861600 37.013658 -33.781131 51.782576 0.000000 0.000000 0.000000 3.257898 -0.420528 -1.006934 3.168616 -3.120198 -0.165522 3.148350 -1.297139 1.649814 0.000000 0.000000 0.000000 0.250935 -0.950055 1.435139 0.416785 -1.937538 -0.452292 0.459801 -3.012094 0.132936 0.000000 0.000000 0.000000 
867.767639 16.537853 1151.500000 0.094225 6.613728 0.071785 0.616960 -9.547831 -0.687613 0.851938 1.039718 0.161304 0.766250 -2.225358 -0.167788 -0.231054 5.842765 0.333124 0.000000 0.000000 0.000000 4.367428 12.170378 5.203338 8.659861 15.320666 -4.684228 -48.127114 11.695205 -87.846352 0.000000 0.000000 0.000000 -4.677462 20.262253 -5.308734 2.165109 19.677281 17.861058 37.028121 -33.763159 51.783422 0.000000 0.000000 0.000000 3.242407 -0.417019 -0.990801 3.155561 -3.098644 -0.180017 3.134043 -1.316893 1.647764 0.000000 0.000000 0.000000 0.238284 -0.950823 1.441834 0.404146 -1.923431 -0.450478 0.447553 -3.023282 0.127438 0.000000 0.000000 0.000000 
867.785095 16.360498 1151.484009 0.134061 6.607808 0.079274 0.610816 -9.543207 -0.702326 0.847253 1.040768 0.163821 0.761122 -2.223669 -0.169698 -0.234463 5.872412 0.344044 0.000000 0.000000 0.000000 4.344102 12.183598 5.214893 8.668113 15.319060 -4.681651 -48.117515 11.696742 -87.845107 0.000000 0.000000 0.000000 -4.719327 20.239028 -5.307294 2.180849 19.665574 17.871714 37.033922 -33.747445 51.787904 0.000000 0.000000 0.000000 3.226599 -0.418906 -0.978854 3.141417 -3.070999 -0.186678 3.118780 -1.337502 1.645482 0.000000 0.000000 0.000000 0.225114 -0.959705 1.446399 0.390114 -1.898196 -0.444709 0.434114 -3.038943 0.121335 0.000000 0.000000 0.000000 
867.792725 16.202763 1151.467041 0.179810 6.602128 0.085668 0.603947 -9.536937 -0.711209 0.841392 1.040368 0.165797 0.755006 -2.221290 -0.170558 -0.237560 5.899865 0.353846 0.000000 0.000000 0.000000 4.327277 12.194385 5.224251 8.679552 15.320193 -4.680576 -48.110327 11.697987 -87.854859 0.000000 0.000000 0.000000 -4.752654 20.212528 -5.314511 2.195778 19.651966 17.892431 37.031868 -33.732689 51.797256 0.000000 0.000000 0.000000 3.208778 -0.423878 -0.968358 3.124876 -3.038427 -0.188493 3.101183 -1.359756 1.642532 0.000000 0.000000 0.000000 0.210096 -0.973544 1.450468 0.373726 -1.866086 -0.436206 0.418423 -3.057542 0.114202 0.000000 0.000000 0.000000 
867.800598 16.050020 1151.453003 0.225379 6.595985 0.093125 0.600301 -9.530376 -0.719488 0.838932 1.040324 0.167243 0.752322 -2.218746 -0.171744 -0.241088 5.925748 0.365650 0.000000 0.000000 0.000000 4.314143 12.202544 5.233688 8.690667 15.324397 -4.678164 -48.106346 11.699397 -87.871070 0.000000 0.000000 0.000000 -4.783439 20.186796 -5.319946 2.209860 19.637604 17.913160 37.028653 -33.721255 51.804871 0.000000 0.000000 0.000000 3.191115 -0.422794 -0.958414 3.108457 -3.016230 -0.192639 3.083969 -1.377448 1.638779 0.000000 0.000000 0.000000 0.195151 -0.988335 1.453449 0.357307 -1.831335 -0.428305 0.402780 -3.076489 0.107083 0.000000 0.000000 0.000000 
867.814087 15.889932 1151.444946 0.266542 6.587810 0.103390 0.601669 -9.521346 -0.731776 0.842130 1.039334 0.169062 0.755328 -2.216026 -0.172693 -0.245059 5.951687 0.379270 0.000000 0.000000 0.000000 4.308492 12.207280 5.243971 8.700344 15.333054 -4.673174 -48.104274 11.702796 -87.892500 0.000000 0.000000 0.000000 -4.813104 20.164340 -5.318896 2.220267 19.623406 17.928476 37.027524 -33.715339 51.810033 0.000000 0.000000 0.000000 3.175071 -0.407159 -0.948061 3.093906 -3.017058 -0.204965 3.069057 -1.385737 1.634028 0.000000 0.000000 0.000000 0.181347 -1.000463 1.454878 0.342212 -1.796068 -0.423439 0.388556 -3.094674 0.100589 0.000000 0.000000 0.000000 
867.830444 15.727669 1151.442993 0.305882 6.578502 0.115163 0.606612 -9.511805 -0.745075 0.849284 1.038450 0.170839 0.762313 -2.212389 -0.173845 -0.249438 5.976569 0.394798 0.000000 0.000000 0.000000 4.310801 12.208379 5.255482 8.709408 15.345825 -4.666695 -48.105214 11.707192 -87.921315 0.000000 0.000000 0.000000 -4.839119 20.143436 -5.314521 2.227670 19.608521 17.942030 37.026249 -33.714079 51.814338 0.000000 0.000000 0.000000 3.159536 -0.381044 -0.936951 3.080040 -3.035214 -0.222786 3.055207 -1.386159 1.628067 0.000000 0.000000 0.000000 0.168050 -1.012339 1.455635 0.327693 -1.758607 -0.420401 0.375006 -3.112449 0.094393 0.000000 0.000000 0.000000 
867.843262 15.572633 1151.442993 0.342286 6.570305 0.127878 0.615517 -9.502123 -0.758547 0.860540 1.037198 0.172648 0.773362 -2.209541 -0.175373 -0.253882 5.999771 0.410574 0.000000 0.000000 0.000000 4.312283 12.207226 5.264854 8.715326 15.359874 -4.659402 -48.106996 11.713154 -87.948015 0.000000 0.000000 0.000000 -4.867751 20.124792 -5.307379 2.241144 19.594719 17.953581 37.027033 -33.715405 51.810225 0.000000 0.000000 0.000000 3.144718 -0.353974 -0.928161 3.066633 -3.057986 -0.240137 3.041973 -1.384967 1.622029 0.000000 0.000000 0.000000 0.155526 -1.025282 1.455423 0.313969 -1.721385 -0.418870 0.362277 -3.129249 0.088570 0.000000 0.000000 0.000000 
867.844666 15.428291 1151.444946 0.374745 6.565188 0.140465 0.626677 -9.492529 -0.770880 0.873996 1.034869 0.175036 0.786565 -2.207151 -0.176938 -0.257079 6.018807 0.421247 0.000000 0.000000 0.000000 4.315739 12.202814 5.268807 8.715685 15.374058 -4.650465 -48.109583 11.720387 -87.966903 0.000000 0.000000 0.000000 -4.894851 20.108274 -5.298116 2.269006 19.582381 17.962975 37.031766 -33.718962 51.789684 0.000000 0.000000 0.000000 3.130961 -0.331549 -0.922301 3.053895 -3.080018 -0.254226 3.029489 -1.384107 1.616390 0.000000 0.000000 0.000000 0.143983 -1.042066 1.455597 0.301340 -1.684179 -0.419728 0.350701 -3.144859 0.083269 0.000000 0.000000 0.000000 
867.840576 15.293295 1151.451050 0.403280 6.562566 0.153446 0.641439 -9.484589 -0.782169 0.891096 1.032983 0.177164 0.803410 -2.205200 -0.178718 -0.259720 6.035890 0.429502 0.000000 0.000000 0.000000 4.319960 12.195645 5.269027 8.711161 15.389357 -4.640256 -48.113311 11.729245 -87.980897 0.000000 0.000000 0.000000 -4.922738 20.093790 -5.286543 2.308784 19.571279 17.970379 37.040227 -33.725386 51.755207 0.000000 0.000000 0.000000 3.118004 -0.310185 -0.918883 3.041640 -3.106179 -0.266840 3.017677 -1.381115 1.610589 0.000000 0.000000 0.000000 0.133698 -1.061779 1.455550 0.290065 -1.646862 -0.422885 0.340529 -3.158772 0.078607 0.000000 0.000000 0.000000 
